<?xml version="1.0" encoding="iso-8859-1"?>
<!-- Uploaded to: SVG Repo, www.svgrepo.com, Generator: SVG Repo Mixer Tools -->
<!DOCTYPE svg PUBLIC "-//W3C//DTD SVG 1.1//EN" "http://www.w3.org/Graphics/SVG/1.1/DTD/svg11.dtd">
<svg fill="#000000" version="1.1" id="Capa_1" xmlns="http://www.w3.org/2000/svg" xmlns:xlink="http://www.w3.org/1999/xlink" 
	 width="800px" height="800px" viewBox="0 0 31.098 31.098"
	 xml:space="preserve">
<g>
	<path d="M30.88,8.195c-0.188-0.237-0.478-0.377-0.781-0.377H15.308l0.585-2.791c0.063-0.295-0.013-0.602-0.202-0.836
		c-0.189-0.232-0.476-0.369-0.775-0.369h-9.67c-0.475,0-0.883,0.332-0.979,0.795L3.84,6.66H0.5C0.225,6.66,0,6.885,0,7.16v19.615
		c0,0.275,0.225,0.5,0.5,0.5h25.69c0.178,0,0.326-0.098,0.414-0.234c0.258-0.133,0.459-0.361,0.526-0.658l3.942-17.341
		C31.142,8.742,31.071,8.433,30.88,8.195z M26.692,19.299v-8.546c0-0.276-0.225-0.5-0.5-0.5H10.671V7.16c0-0.276-0.224-0.5-0.5-0.5
		H5.882l0.176-0.838h7.626l-0.585,2.791c-0.062,0.295,0.013,0.602,0.202,0.836c0.189,0.232,0.477,0.369,0.775,0.369h14.771
		L26.692,19.299z"/>
</g>
</svg>