<svg xmlns="http://www.w3.org/2000/svg" width="40" height="40" fill="none" overflow="visible"><g><path d="M 0 0 L 40 0 L 40 40 L 0 40 Z" fill="transparent"></path><path d="M 1.563 20 C 1.563 9.817 9.817 1.563 20 1.563 C 30.183 1.563 38.438 9.817 38.438 20 C 38.438 30.183 30.183 38.438 20 38.438 C 9.817 38.438 1.563 30.183 1.563 20 Z" fill="rgb(0,0,0)" stroke="rgb(1,0,1)" stroke-linecap="round" stroke-linejoin="round" stroke-dasharray=""></path><path d="M 26.575 27.5 L 26.575 12.5" fill="rgb(0,0,0)" stroke="rgb(NaN,NaN,NaN)" stroke-linejoin="round" stroke-dasharray=""></path><g><defs><linearGradient id="idid_zkAc4evqeg1150179184" x1="0.08214490201231128" x2="0.9178550979876887" y1="0" y2="1"><stop offset="0" stop-color="rgb(255,255,255)" stop-opacity="1"></stop><stop offset="1" stop-color="rgba(255,255,255,0)" stop-opacity="0"></stop></linearGradient></defs><path d="M 14.987 12.5 L 11.862 12.5 L 11.862 27.5 L 14.987 27.5 L 14.987 17.42 L 30.902 36.77 C 31.777 36.199 32.606 35.561 33.382 34.862 L 14.987 12.503 Z" fill="url(#idid_zkAc4evqeg1150179184)"></path></g></g></svg>