<svg xmlns="http://www.w3.org/2000/svg" width="44.839" height="35.255" fill="none" overflow="visible"><path d="M 32.741 6.32 C 34.078 8.083 35.317 9.717 37.013 10.276 C 39.98 11.265 42.589 9.803 44.839 5.89 C 43.339 13.715 39.589 17.628 33.621 17.628 C 28.078 17.628 25.534 14.231 23.349 11.265 C 22.012 9.502 20.773 7.868 19.077 7.309 C 16.077 6.363 13.468 7.825 11.218 11.737 C 12.718 3.912 16.436 0 22.403 0 C 27.98 0 30.523 3.397 32.741 6.32 Z M 21.49 23.948 C 22.827 25.711 24.066 27.344 25.762 27.903 C 28.762 28.892 31.371 27.43 33.621 23.518 C 32.121 31.343 28.371 35.255 22.403 35.255 C 16.86 35.255 14.316 31.859 12.131 28.892 C 10.794 27.13 9.555 25.496 7.859 24.937 C 4.859 23.991 2.25 25.453 0 29.365 C 1.5 21.54 5.218 17.628 11.218 17.628 C 16.762 17.628 19.305 21.024 21.49 23.948 Z" fill="rgb(56,189,248)"></path></svg>