<svg xmlns="http://www.w3.org/2000/svg" width="40" height="40" fill="none" overflow="visible"><g><path d="M 1.5 0 L 38.5 0 C 39.328 0 40 0.672 40 1.5 L 40 38.5 C 40 39.328 39.328 40 38.5 40 L 1.5 40 C 0.672 40 0 39.328 0 38.5 L 0 1.5 C 0 0.672 0.672 0 1.5 0 Z" fill="rgb(255,255,255)"></path><path d="M 1.5 0 L 38.5 0 C 39.328 0 40 0.672 40 1.5 L 40 38.5 C 40 39.328 39.328 40 38.5 40 L 1.5 40 C 0.672 40 0 39.328 0 38.5 L 0 1.5 C 0 0.672 0.672 0 1.5 0 Z M 22.235 21.28 L 22.235 17.999 L 8 17.999 L 8 21.28 L 13.082 21.28 L 13.082 35.887 L 17.128 35.887 L 17.128 21.28 Z M 23.848 35.501 C 24.501 35.834 25.273 36.084 26.164 36.25 C 27.054 36.416 27.993 36.499 28.98 36.499 C 29.942 36.499 30.856 36.408 31.722 36.225 C 32.588 36.042 33.347 35.74 33.999 35.32 C 34.652 34.9 35.168 34.352 35.549 33.674 C 35.929 32.996 36.12 32.158 36.12 31.16 C 36.12 30.437 36.011 29.803 35.794 29.258 C 35.576 28.713 35.262 28.229 34.852 27.804 C 34.443 27.38 33.951 27 33.378 26.663 C 32.805 26.326 32.159 26.008 31.44 25.709 C 30.913 25.492 30.44 25.282 30.022 25.079 C 29.604 24.875 29.248 24.667 28.955 24.455 C 28.662 24.243 28.437 24.018 28.278 23.781 C 28.119 23.544 28.039 23.276 28.039 22.977 C 28.039 22.702 28.11 22.455 28.253 22.235 C 28.395 22.014 28.596 21.825 28.855 21.667 C 29.114 21.509 29.432 21.386 29.808 21.299 C 30.185 21.212 30.603 21.168 31.063 21.168 C 31.398 21.168 31.751 21.193 32.123 21.243 C 32.496 21.293 32.87 21.37 33.246 21.474 C 33.622 21.577 33.989 21.708 34.344 21.867 C 34.689 22.019 35.019 22.202 35.329 22.415 L 35.329 18.686 C 34.719 18.453 34.052 18.28 33.328 18.168 C 32.604 18.056 31.774 17.999 30.837 17.999 C 29.884 17.999 28.98 18.101 28.127 18.305 C 27.274 18.509 26.523 18.827 25.875 19.259 C 25.227 19.692 24.714 20.243 24.338 20.912 C 23.961 21.582 23.773 22.382 23.773 23.314 C 23.773 24.503 24.118 25.518 24.808 26.357 C 25.498 27.197 26.546 27.908 27.952 28.491 C 28.47 28.701 28.985 28.921 29.495 29.152 C 29.972 29.368 30.384 29.593 30.731 29.825 C 31.078 30.058 31.352 30.312 31.552 30.586 C 31.753 30.861 31.854 31.173 31.854 31.522 C 31.854 31.78 31.791 32.019 31.665 32.239 C 31.54 32.46 31.35 32.651 31.095 32.813 C 30.839 32.975 30.522 33.102 30.141 33.194 C 29.76 33.285 29.315 33.331 28.805 33.331 C 27.935 33.331 27.073 33.179 26.22 32.876 C 25.367 32.572 24.576 32.117 23.848 31.51 Z" fill="rgb(49,120,198)"></path></g></svg>